<?xml version='1.0' encoding='UTF-8' standalone='no'?>
<!-- Created with Fritzing (http://www.fritzing.org/) -->
<svg xmlns:svg='http://www.w3.org/2000/svg' xmlns='http://www.w3.org/2000/svg' version='1.2' baseProfile='tiny' x='0in' y='0in' width='3.501in' height='1.65285in' viewBox='0 0 252.072 119.005' >
<g partID='178210'><g transform='translate(132.345,16.5564)' ><g id="schematic">
<line class="other" y1="7.55002" stroke-width="0.432" y2="10.43" stroke="#000000" x1="14.75" x2="8.98999" stroke-linecap="round"/>
<line class="other" y1="19.0701" stroke-width="0.432" y2="21.9501" stroke="#000000" x1="8.98999" x2="14.75" stroke-linecap="round"/>
<line class="other" y1="7.55002" stroke-width="0.432" y2="10.43" stroke="#000000" x1="11.15" x2="12.59" stroke-linecap="round"/>
<line class="other" y1="10.43" stroke-width="0.432" y2="10.43" stroke="#000000" x1="12.59" x2="8.98999" stroke-linecap="round"/>
<line class="other" y1="10.43" stroke-width="0.432" y2="7.55002" stroke="#000000" x1="8.98999" x2="11.15" stroke-linecap="round"/>
<line class="other" y1="8.19802" stroke-width="0.576" y2="10.142" stroke="#000000" x1="11.006" x2="12.014" stroke-linecap="round"/>
<line class="other" y1="8.63003" stroke-width="0.576" y2="10.142" stroke="#000000" x1="10.79" x2="11.51" stroke-linecap="round"/>
<line class="other" y1="8.99003" stroke-width="0.576" y2="10.142" stroke="#000000" x1="10.43" x2="11.006" stroke-linecap="round"/>
<line class="other" y1="9.42203" stroke-width="0.576" y2="10.07" stroke="#000000" x1="10.214" x2="10.502" stroke-linecap="round"/>
<line class="other" y1="9.71003" stroke-width="0.576" y2="10.142" stroke="#000000" x1="9.85399" x2="10.07" stroke-linecap="round"/>
<rect x="6.82999" width="2.16" y="7.55002" class="other" stroke-width="0" stroke="none" stroke-linecap="round" height="14.4001" fill="#000000"/>
<line id="connector0pin" class="pin" y1="14.75" stroke-width="0.699999" connectorname="B" y2="14.75" stroke="#787878" x1="0.349999" x2="7.54999" stroke-linecap="round"/>
<g x="0.349999" width="0.000283465" id="connector0terminal" y="14.75" class="terminal" stroke-width="0" stroke="none" height="0.000283466" fill="none"/>
<text x="3.94999" y="13.7001" class="text" font-family="'Droid Sans'" stroke-width="0" stroke="none" font-size="2.5" fill="#8c8c8c" text-anchor="middle">1</text>
<line id="connector1pin" class="pin" y1="29.1502" stroke-width="0.699999" connectorname="C" y2="21.9501" stroke="#787878" x1="14.75" x2="14.75" stroke-linecap="round"/>
<g x="14.75" width="0.000283465" id="connector1terminal" y="29.1502" class="terminal" stroke-width="0" stroke="none" height="0.000283466" fill="none"/>
<g transform="matrix(1, 0, 0, 1, 13.7, 25.5501)">
<g>
<g transform="rotate(270)">
<g>
<text x="0" y="0" class="text" font-family="'Droid Sans'" stroke-width="0" stroke="none" font-size="2.5" fill="#8c8c8c" text-anchor="middle">3</text>
</g>
</g>
</g>
</g>
<line id="connector2pin" class="pin" y1="0.350001" stroke-width="0.699999" connectorname="E" y2="7.55002" stroke="#787878" x1="14.75" x2="14.75" stroke-linecap="round"/>
<g x="14.75" width="0.000283465" id="connector2terminal" y="0.350001" class="terminal" stroke-width="0" stroke="none" height="0.000283466" fill="none"/>
<g transform="matrix(1, 0, 0, 1, 13.7, 3.95001)">
<g>
<g transform="rotate(270 )">
<g>
<text x="0" y="0" class="text" font-family="'Droid Sans'" stroke-width="0" stroke="none" font-size="2.5" fill="#8c8c8c" text-anchor="middle">2</text>
</g>
</g>
</g>
</g>
</g>
</g></g><g partID='179960'><g transform='translate(189.935,16.5564)' ><g id="schematic">
<line class="other" y1="7.54999" stroke-width="0.72" y2="7.54999" stroke="#000000" x1="0.36" x2="14.76" stroke-linecap="round"/>
<line class="other" y1="10.43" stroke-width="0.432" y2="14.75" stroke="#000000" x1="7.56" x2="7.56" stroke-linecap="round"/>
<path d="M7.56,10.3846A11.4922,11.4922,0,0,1,14.616,12.806" class="other" stroke-width="0.72" stroke="#000000" fill="none"/>
<path d="M0.567213,12.7952A11.5191,11.5191,0,0,1,7.56,10.4303" class="other" stroke-width="0.72" stroke="#000000" fill="none"/>
<rect x="1.17354" width="2.52" y="5.29645" class="other" stroke-width="0" stroke="none" stroke-linecap="round" height="0.36" fill="#000000"/>
<rect x="2.25354" width="0.36" y="4.21645" class="other" stroke-width="0" stroke="none" stroke-linecap="round" height="2.52" fill="#000000"/>
<line id="connector1pin" class="pin" y1="0.349999" stroke-width="0.699999" connectorname="+" y2="7.54999" stroke="#787878" x1="7.56" x2="7.56" stroke-linecap="round"/>
<g x="7.56" width="0.000283465" id="connector1terminal" y="0.349999" class="terminal" stroke-width="0" stroke="none" height="0.000283465" fill="none"/>
<g transform="matrix(1, 0, 0, 1, 6.50999, 3.94999)">
<g>
<g transform="rotate(270)">
<g>
<text x="0" y="0" class="text" font-family="'Droid Sans'" stroke-width="0" stroke="none" font-size="2.5" fill="#8c8c8c" text-anchor="middle">2</text>
</g>
</g>
</g>
</g>
<line id="connector0pin" class="pin" y1="21.95" stroke-width="0.699999" connectorname="-" y2="14.75" stroke="#787878" x1="7.56" x2="7.56" stroke-linecap="round"/>
<g x="7.56" width="0.000283465" id="connector0terminal" y="21.95" class="terminal" stroke-width="0" stroke="none" height="0.000283465" fill="none"/>
<g transform="matrix(1, 0, 0, 1, 6.50999, 18.35)">
<g>
<g transform="rotate(270)">
<g>
<text x="0" y="0" class="text" font-family="'Droid Sans'" stroke-width="0" stroke="none" font-size="2.5" fill="#8c8c8c" text-anchor="middle">1</text>
</g>
</g>
</g>
</g>
</g>
</g></g><g partID='187820'><g transform='translate(6.19201,30.9568)' ><g transform='matrix(0,1,-1,0,0,0)'  ><g id="schematic" xmlns="http://www.w3.org/2000/svg">
<line class="other" y1="3.096" stroke-width="0.432002" y2="0.216" stroke="#000000" xmlns="http://www.w3.org/2000/svg" x1="7.55002" x2="8.63003" stroke-linecap="round"/>
<line class="other" y1="0.216" stroke-width="0.432002" y2="5.976" stroke="#000000" xmlns="http://www.w3.org/2000/svg" x1="8.63003" x2="10.43" stroke-linecap="round"/>
<line class="other" y1="5.976" stroke-width="0.432002" y2="0.216" stroke="#000000" xmlns="http://www.w3.org/2000/svg" x1="10.43" x2="12.23" stroke-linecap="round"/>
<line class="other" y1="0.216" stroke-width="0.432002" y2="5.976" stroke="#000000" xmlns="http://www.w3.org/2000/svg" x1="12.23" x2="14.03" stroke-linecap="round"/>
<line class="other" y1="5.976" stroke-width="0.432002" y2="0.216" stroke="#000000" xmlns="http://www.w3.org/2000/svg" x1="14.03" x2="15.8301" stroke-linecap="round"/>
<line class="other" y1="0.216" stroke-width="0.432002" y2="5.976" stroke="#000000" xmlns="http://www.w3.org/2000/svg" x1="15.8301" x2="17.6301" stroke-linecap="round"/>
<line class="other" y1="5.976" stroke-width="0.432002" y2="0.216" stroke="#000000" xmlns="http://www.w3.org/2000/svg" x1="17.6301" x2="19.4301" stroke-linecap="round"/>
<line class="other" y1="0.216" stroke-width="0.432002" y2="5.976" stroke="#000000" xmlns="http://www.w3.org/2000/svg" x1="19.4301" x2="21.2301" stroke-linecap="round"/>
<line class="other" y1="5.976" stroke-width="0.432002" y2="3.096" stroke="#000000" xmlns="http://www.w3.org/2000/svg" x1="21.2301" x2="21.9501" stroke-linecap="round"/>
<line id="connector1pin" class="pin" y1="3.096" stroke-width="0.700001" connectorname="2" y2="3.096" stroke="#787878" xmlns="http://www.w3.org/2000/svg" x1="29.1502" x2="21.9501" stroke-linecap="round"/>
<g x="29.1502" width="0.000283466" id="connector1terminal" y="3.096" class="terminal" stroke-width="0" stroke="none" xmlns="http://www.w3.org/2000/svg" height="0.000283465" fill="none"/>
<text x="25.5501" y="2.046" class="text" font-family="'Droid Sans'" stroke-width="0" stroke="none" xmlns="http://www.w3.org/2000/svg" font-size="2.50001" fill="#8c8c8c" text-anchor="middle">2</text>
<line id="connector0pin" class="pin" y1="3.096" stroke-width="0.700001" connectorname="1" y2="3.096" stroke="#787878" xmlns="http://www.w3.org/2000/svg" x1="0.350001" x2="7.55002" stroke-linecap="round"/>
<g x="0.350001" width="0.000283466" id="connector0terminal" y="3.096" class="terminal" stroke-width="0" stroke="none" xmlns="http://www.w3.org/2000/svg" height="0.000283465" fill="none"/>
<text x="3.95001" y="2.046" class="text" font-family="'Droid Sans'" stroke-width="0" stroke="none" xmlns="http://www.w3.org/2000/svg" font-size="2.50001" fill="#8c8c8c" text-anchor="middle">1</text>
</g>
</g></g></g><g partID='127980'><g transform='translate(68.2458,20.0029)' ><g transform='matrix(-1,0,0,-1,0,0)'  ><g id="schematic" xmlns="http://www.w3.org/2000/svg">
<line class="other" y1="3.096" stroke-width="0.432002" y2="0.216" stroke="#000000" xmlns="http://www.w3.org/2000/svg" x1="7.55002" x2="8.63003" stroke-linecap="round"/>
<line class="other" y1="0.216" stroke-width="0.432002" y2="5.976" stroke="#000000" xmlns="http://www.w3.org/2000/svg" x1="8.63003" x2="10.43" stroke-linecap="round"/>
<line class="other" y1="5.976" stroke-width="0.432002" y2="0.216" stroke="#000000" xmlns="http://www.w3.org/2000/svg" x1="10.43" x2="12.23" stroke-linecap="round"/>
<line class="other" y1="0.216" stroke-width="0.432002" y2="5.976" stroke="#000000" xmlns="http://www.w3.org/2000/svg" x1="12.23" x2="14.03" stroke-linecap="round"/>
<line class="other" y1="5.976" stroke-width="0.432002" y2="0.216" stroke="#000000" xmlns="http://www.w3.org/2000/svg" x1="14.03" x2="15.8301" stroke-linecap="round"/>
<line class="other" y1="0.216" stroke-width="0.432002" y2="5.976" stroke="#000000" xmlns="http://www.w3.org/2000/svg" x1="15.8301" x2="17.6301" stroke-linecap="round"/>
<line class="other" y1="5.976" stroke-width="0.432002" y2="0.216" stroke="#000000" xmlns="http://www.w3.org/2000/svg" x1="17.6301" x2="19.4301" stroke-linecap="round"/>
<line class="other" y1="0.216" stroke-width="0.432002" y2="5.976" stroke="#000000" xmlns="http://www.w3.org/2000/svg" x1="19.4301" x2="21.2301" stroke-linecap="round"/>
<line class="other" y1="5.976" stroke-width="0.432002" y2="3.096" stroke="#000000" xmlns="http://www.w3.org/2000/svg" x1="21.2301" x2="21.9501" stroke-linecap="round"/>
<line id="connector1pin" class="pin" y1="3.096" stroke-width="0.700001" connectorname="2" y2="3.096" stroke="#787878" xmlns="http://www.w3.org/2000/svg" x1="29.1502" x2="21.9501" stroke-linecap="round"/>
<g x="29.1502" width="0.000283466" id="connector1terminal" y="3.096" class="terminal" stroke-width="0" stroke="none" xmlns="http://www.w3.org/2000/svg" height="0.000283465" fill="none"/>
<text x="25.5501" y="2.046" class="text" font-family="'Droid Sans'" stroke-width="0" stroke="none" xmlns="http://www.w3.org/2000/svg" font-size="2.50001" fill="#8c8c8c" text-anchor="middle">2</text>
<line id="connector0pin" class="pin" y1="3.096" stroke-width="0.700001" connectorname="1" y2="3.096" stroke="#787878" xmlns="http://www.w3.org/2000/svg" x1="0.350001" x2="7.55002" stroke-linecap="round"/>
<g x="0.350001" width="0.000283466" id="connector0terminal" y="3.096" class="terminal" stroke-width="0" stroke="none" xmlns="http://www.w3.org/2000/svg" height="0.000283465" fill="none"/>
<text x="3.95001" y="2.046" class="text" font-family="'Droid Sans'" stroke-width="0" stroke="none" xmlns="http://www.w3.org/2000/svg" font-size="2.50001" fill="#8c8c8c" text-anchor="middle">1</text>
</g>
</g></g></g><g partID='127990'><g transform='translate(118.646,34.4028)' ><g transform='matrix(-1,0,0,-1,0,0)'  ><g id="schematic" xmlns="http://www.w3.org/2000/svg">
<line class="other" y1="3.096" stroke-width="0.432002" y2="0.216" stroke="#000000" xmlns="http://www.w3.org/2000/svg" x1="7.55002" x2="8.63003" stroke-linecap="round"/>
<line class="other" y1="0.216" stroke-width="0.432002" y2="5.976" stroke="#000000" xmlns="http://www.w3.org/2000/svg" x1="8.63003" x2="10.43" stroke-linecap="round"/>
<line class="other" y1="5.976" stroke-width="0.432002" y2="0.216" stroke="#000000" xmlns="http://www.w3.org/2000/svg" x1="10.43" x2="12.23" stroke-linecap="round"/>
<line class="other" y1="0.216" stroke-width="0.432002" y2="5.976" stroke="#000000" xmlns="http://www.w3.org/2000/svg" x1="12.23" x2="14.03" stroke-linecap="round"/>
<line class="other" y1="5.976" stroke-width="0.432002" y2="0.216" stroke="#000000" xmlns="http://www.w3.org/2000/svg" x1="14.03" x2="15.8301" stroke-linecap="round"/>
<line class="other" y1="0.216" stroke-width="0.432002" y2="5.976" stroke="#000000" xmlns="http://www.w3.org/2000/svg" x1="15.8301" x2="17.6301" stroke-linecap="round"/>
<line class="other" y1="5.976" stroke-width="0.432002" y2="0.216" stroke="#000000" xmlns="http://www.w3.org/2000/svg" x1="17.6301" x2="19.4301" stroke-linecap="round"/>
<line class="other" y1="0.216" stroke-width="0.432002" y2="5.976" stroke="#000000" xmlns="http://www.w3.org/2000/svg" x1="19.4301" x2="21.2301" stroke-linecap="round"/>
<line class="other" y1="5.976" stroke-width="0.432002" y2="3.096" stroke="#000000" xmlns="http://www.w3.org/2000/svg" x1="21.2301" x2="21.9501" stroke-linecap="round"/>
<line id="connector1pin" class="pin" y1="3.096" stroke-width="0.700001" connectorname="2" y2="3.096" stroke="#787878" xmlns="http://www.w3.org/2000/svg" x1="29.1502" x2="21.9501" stroke-linecap="round"/>
<g x="29.1502" width="0.000283466" id="connector1terminal" y="3.096" class="terminal" stroke-width="0" stroke="none" xmlns="http://www.w3.org/2000/svg" height="0.000283465" fill="none"/>
<text x="25.5501" y="2.046" class="text" font-family="'Droid Sans'" stroke-width="0" stroke="none" xmlns="http://www.w3.org/2000/svg" font-size="2.50001" fill="#8c8c8c" text-anchor="middle">2</text>
<line id="connector0pin" class="pin" y1="3.096" stroke-width="0.700001" connectorname="1" y2="3.096" stroke="#787878" xmlns="http://www.w3.org/2000/svg" x1="0.350001" x2="7.55002" stroke-linecap="round"/>
<g x="0.350001" width="0.000283466" id="connector0terminal" y="3.096" class="terminal" stroke-width="0" stroke="none" xmlns="http://www.w3.org/2000/svg" height="0.000283465" fill="none"/>
<text x="3.95001" y="2.046" class="text" font-family="'Droid Sans'" stroke-width="0" stroke="none" xmlns="http://www.w3.org/2000/svg" font-size="2.50001" fill="#8c8c8c" text-anchor="middle">1</text>
</g>
</g></g></g><g partID='128010'><g transform='translate(137.195,88.69)' ><g id="schematic">
<g>
<path d="M13.5,14.966L9.9,14.966c-0.193,0,-0.35,-0.156,-0.35,-0.35s0.156,-0.35,0.35,-0.35L13.5,14.266c0.193,0,0.35,0.156,0.35,0.35S13.694,14.966,13.5,14.966z"/>
</g>
<g>
<path d="M9.9,14.966L6.3,14.966c-0.193,0,-0.35,-0.156,-0.35,-0.35s0.157,-0.35,0.35,-0.35l3.6,0c0.193,0,0.35,0.156,0.35,0.35S10.093,14.966,9.9,14.966z"/>
</g>
<g>
<polygon points="9.9,14.616,6.3,7.416,9.9,7.416,13.5,7.416" fill="#FFFFFF"/>
<path d="M9.9,15.398L5.734,7.066l8.333,0L9.9,15.398zM6.866,7.766L9.9,13.834l3.034,-6.068L6.866,7.766z"/>
</g>
<g>
<path d="M9.9,14.841c-0.124,0,-0.225,-0.101,-0.225,-0.225l0,-7.2c0,-0.124,0.101,-0.225,0.225,-0.225s0.225,0.101,0.225,0.225l0,7.2C10.124,14.74,10.024,14.841,9.9,14.841z"/>
</g>
<g>
<path d="M1.8,12.141c-0.058,0,-0.115,-0.021,-0.159,-0.065c-0.088,-0.088,-0.088,-0.23,0,-0.318l2.34,-2.341c0.088,-0.088,0.23,-0.088,0.318,0s0.088,0.23,0,0.318l-2.34,2.341C1.915,12.12,1.858,12.141,1.8,12.141z"/>
</g>
<g>
<path d="M2.16,15.381c-0.058,0,-0.115,-0.021,-0.159,-0.065c-0.088,-0.088,-0.088,-0.23,0,-0.318l2.34,-2.34c0.088,-0.088,0.23,-0.088,0.318,0s0.088,0.23,0,0.318l-2.34,2.34C2.276,15.359,2.218,15.381,2.16,15.381z"/>
</g>
<g id="connector0pin">
<path d="M9.9,22.166c-0.193,0,-0.35,-0.156,-0.35,-0.35l0,-7.2c0,-0.193,0.156,-0.35,0.35,-0.35s0.35,0.156,0.35,0.35l0,7.2C10.249,22.01,10.093,22.166,9.9,22.166z" fill="#787878"/>
</g>
<g id="connector0terminal">
<rect x="9.9" width="0.001" y="21.816" height="0.001" fill="none"/>
</g>
<g transform="matrix(1, 0, 0, 1, 3.429, 6.4262)">
<g>
<g transform="rotate(270)">
<g>
<g enable-background="new    ">
<path d="M-11.647,5.54l-0.891,0L-12.538,5.388l0.342,-0.372c0.049,-0.053,0.093,-0.101,0.131,-0.145s0.071,-0.086,0.099,-0.128c0.026,-0.042,0.047,-0.084,0.062,-0.125c0.015,-0.043,0.021,-0.088,0.021,-0.138c0,-0.038,-0.005,-0.072,-0.017,-0.102s-0.027,-0.054,-0.047,-0.075c-0.021,-0.02,-0.045,-0.035,-0.073,-0.046s-0.06,-0.016,-0.094,-0.016c-0.062,0,-0.118,0.013,-0.167,0.038c-0.051,0.024,-0.098,0.057,-0.143,0.096l-0.1,-0.116c0.025,-0.023,0.055,-0.046,0.084,-0.065c0.029,-0.021,0.063,-0.039,0.097,-0.054s0.071,-0.026,0.109,-0.036c0.038,-0.008,0.079,-0.013,0.121,-0.013c0.063,0,0.119,0.009,0.169,0.026c0.051,0.018,0.094,0.043,0.129,0.076c0.035,0.032,0.063,0.072,0.082,0.119c0.019,0.048,0.028,0.101,0.028,0.16c0,0.056,-0.009,0.108,-0.026,0.158c-0.017,0.05,-0.041,0.1,-0.07,0.148c-0.031,0.048,-0.066,0.097,-0.109,0.146c-0.041,0.049,-0.087,0.1,-0.136,0.152L-12.32,5.37l0,0.008l0.673,0L-11.647,5.54z" fill="#787878"/>
</g>
</g>
</g>
</g>
</g>
<g id="connector1pin">
<path d="M9.9,7.766c-0.193,0,-0.35,-0.157,-0.35,-0.35l0,-7.2c0,-0.193,0.156,-0.35,0.35,-0.35s0.35,0.157,0.35,0.35l0,7.2C10.249,7.609,10.093,7.766,9.9,7.766z" fill="#787878"/>
</g>
<g id="connector1terminal">
<polygon points="9.9,0.216,9.901,0.216,9.901,0.216" fill="none"/>
</g>
<g transform="matrix(1, 0, 0, 1, 3.429, 1.3462)">
<g>
<g transform="rotate(270)">
<g>
<g enable-background="new    ">
<path d="M-2.616,5.54l-0.172,0L-2.788,4.648c0,-0.028,0,-0.058,0,-0.09s0.001,-0.063,0.002,-0.095c0.001,-0.032,0.002,-0.063,0.003,-0.092c0.001,-0.028,0.002,-0.054,0.002,-0.076c-0.011,0.012,-0.021,0.021,-0.029,0.03s-0.017,0.017,-0.026,0.024s-0.018,0.016,-0.028,0.025c-0.01,0.008,-0.021,0.019,-0.035,0.03l-0.145,0.118l-0.094,-0.12l0.374,-0.292l0.146,0L-2.618,5.54z" fill="#787878"/>
</g>
</g>
</g>
</g>
</g>
<g>
<path d="M0.18,13.536l1.08,-2.521l1.44,1.438L0.18,13.536z"/>
</g>
<g>
<path d="M0.54,16.776l1.08,-2.521l1.438,1.438L0.54,16.776z"/>
</g>
</g>
</g></g><g partID='128030'><g transform='translate(118.646,81.3464)' ><g transform='matrix(0,1,-1,0,0,0)'  ><g id="schematic">
<line class="other" y1="7.54999" stroke-width="0.72" y2="7.54999" stroke="#000000" x1="0.36" x2="14.76" stroke-linecap="round"/>
<line class="other" y1="10.43" stroke-width="0.432" y2="14.75" stroke="#000000" x1="7.56" x2="7.56" stroke-linecap="round"/>
<path d="M7.56,10.3846A11.4922,11.4922,0,0,1,14.616,12.806" class="other" stroke-width="0.72" stroke="#000000" fill="none"/>
<path d="M0.567213,12.7952A11.5191,11.5191,0,0,1,7.56,10.4303" class="other" stroke-width="0.72" stroke="#000000" fill="none"/>
<rect x="1.17354" width="2.52" y="5.29645" class="other" stroke-width="0" stroke="none" stroke-linecap="round" height="0.36" fill="#000000"/>
<rect x="2.25354" width="0.36" y="4.21645" class="other" stroke-width="0" stroke="none" stroke-linecap="round" height="2.52" fill="#000000"/>
<line id="connector1pin" class="pin" y1="0.349999" stroke-width="0.699999" connectorname="+" y2="7.54999" stroke="#787878" x1="7.56" x2="7.56" stroke-linecap="round"/>
<g x="7.56" width="0.000283465" id="connector1terminal" y="0.349999" class="terminal" stroke-width="0" stroke="none" height="0.000283465" fill="none"/>
<g transform="matrix(1, 0, 0, 1, 6.50999, 3.94999)">
<g>
<g transform="rotate(270)">
<g>
<text x="0" y="0" class="text" font-family="'Droid Sans'" stroke-width="0" stroke="none" font-size="2.5" fill="#8c8c8c" text-anchor="middle">2</text>
</g>
</g>
</g>
</g>
<line id="connector0pin" class="pin" y1="21.95" stroke-width="0.699999" connectorname="-" y2="14.75" stroke="#787878" x1="7.56" x2="7.56" stroke-linecap="round"/>
<g x="7.56" width="0.000283465" id="connector0terminal" y="21.95" class="terminal" stroke-width="0" stroke="none" height="0.000283465" fill="none"/>
<g transform="matrix(1, 0, 0, 1, 6.50999, 18.35)">
<g>
<g transform="rotate(270)">
<g>
<text x="0" y="0" class="text" font-family="'Droid Sans'" stroke-width="0" stroke="none" font-size="2.5" fill="#8c8c8c" text-anchor="middle">1</text>
</g>
</g>
</g>
</g>
</g>
</g></g></g><g partID='128060'><g transform='translate(53.1455,45.3564)' ><g transform='matrix(1,0,0,1,0,0)'  ><g id="schematic">
<line class="other" y1="7.55002" stroke-width="0.432" y2="10.43" stroke="#000000" x1="14.75" x2="8.98999" stroke-linecap="round"/>
<line class="other" y1="19.0701" stroke-width="0.432" y2="21.9501" stroke="#000000" x1="12.59" x2="14.75" stroke-linecap="round"/>
<line class="other" y1="21.9501" stroke-width="0.432" y2="21.9501" stroke="#000000" x1="14.75" x2="11.15" stroke-linecap="round"/>
<line class="other" y1="21.9501" stroke-width="0.432" y2="19.0701" stroke="#000000" x1="11.15" x2="12.59" stroke-linecap="round"/>
<line class="other" y1="20.5327" stroke-width="0.432" y2="18.7866" stroke="#000000" x1="11.9153" x2="8.42306" stroke-linecap="round"/>
<line class="other" y1="21.5901" stroke-width="0.72" y2="21.5901" stroke="#000000" x1="11.87" x2="14.03" stroke-linecap="round"/>
<line class="other" y1="21.5901" stroke-width="0.72" y2="19.7901" stroke="#000000" x1="14.03" x2="12.59" stroke-linecap="round"/>
<line class="other" y1="19.7901" stroke-width="0.72" y2="21.2301" stroke="#000000" x1="12.59" x2="11.87" stroke-linecap="round"/>
<line class="other" y1="21.2301" stroke-width="0.72" y2="21.2301" stroke="#000000" x1="11.87" x2="12.95" stroke-linecap="round"/>
<line class="other" y1="21.2301" stroke-width="0.72" y2="20.5101" stroke="#000000" x1="12.95" x2="12.59" stroke-linecap="round"/>
<rect x="6.82999" width="2.16" y="7.55002" class="other" stroke-width="0" stroke="none" stroke-linecap="round" height="14.4001" fill="#000000"/>
<line id="connector0pin" class="pin" y1="14.75" stroke-width="0.699999" connectorname="B" y2="14.75" stroke="#787878" x1="0.349999" x2="7.54999" stroke-linecap="round"/>
<g x="0.349999" width="0.000283465" id="connector0terminal" y="14.75" class="terminal" stroke-width="0" stroke="none" height="0.000283466" fill="none"/>
<text x="3.94999" y="13.7001" class="text" font-family="'Droid Sans'" stroke-width="0" stroke="none" font-size="2.5" fill="#8c8c8c" text-anchor="middle">1</text>
<line id="connector2pin" class="pin" y1="29.1502" stroke-width="0.699999" connectorname="E" y2="21.9501" stroke="#787878" x1="14.75" x2="14.75" stroke-linecap="round"/>
<g x="14.75" width="0.000283465" id="connector2terminal" y="29.1502" class="terminal" stroke-width="0" stroke="none" height="0.000283466" fill="none"/>
<g transform="matrix(1, 0, 0, 1, 13.7, 25.5501)">
<g>
<g transform="rotate(270)">
<g>
<text x="0" y="0" class="text" font-family="'Droid Sans'" stroke-width="0" stroke="none" font-size="2.5" fill="#8c8c8c" text-anchor="middle">2</text>
</g>
</g>
</g>
</g>
<line id="connector1pin" class="pin" y1="0.350001" stroke-width="0.699999" connectorname="C" y2="7.55002" stroke="#787878" x1="14.75" x2="14.75" stroke-linecap="round"/>
<g x="14.75" width="0.000283465" id="connector1terminal" y="0.350001" class="terminal" stroke-width="0" stroke="none" height="0.000283466" fill="none"/>
<g transform="matrix(1, 0, 0, 1, 13.7, 3.95001)">
<g>
<g transform="rotate(270)">
<g>
<text x="0" y="0" class="text" font-family="'Droid Sans'" stroke-width="0" stroke="none" font-size="2.5" fill="#8c8c8c" text-anchor="middle">3</text>
</g>
</g>
</g>
</g>
</g>
</g></g></g><g partID='123900'><g transform='translate(252.072,45.3569)' ><g transform='matrix(0,1,-1,0,0,0)'  ><g id="schematic" xmlns="http://www.w3.org/2000/svg">
<line class="other" y1="0.576" stroke-width="1.152" y2="22.176" stroke="#000000" xmlns="http://www.w3.org/2000/svg" x1="11.15" x2="11.15" stroke-linecap="round"/>
<line class="other" y1="7.776" stroke-width="1.152" y2="14.976" stroke="#000000" xmlns="http://www.w3.org/2000/svg" x1="14.75" x2="14.75" stroke-linecap="round"/>
<line class="other" y1="0.576" stroke-width="1.152" y2="22.176" stroke="#000000" xmlns="http://www.w3.org/2000/svg" x1="18.3501" x2="18.3501" stroke-linecap="round"/>
<line class="other" y1="7.776" stroke-width="1.152" y2="14.976" stroke="#000000" xmlns="http://www.w3.org/2000/svg" x1="21.9501" x2="21.9501" stroke-linecap="round"/>
<line class="other" y1="11.376" stroke-width="0.432002" y2="11.376" stroke="#000000" xmlns="http://www.w3.org/2000/svg" x1="7.55002" x2="10.43" stroke-linecap="round"/>
<line id="connector0pin" class="pin" y1="11.376" stroke-width="0.700001" connectorname="-" y2="11.376" stroke="#787878" xmlns="http://www.w3.org/2000/svg" x1="29.1502" x2="21.9501" stroke-linecap="round"/>
<g x="29.1502" width="0.000283466" id="connector0terminal" y="11.376" class="terminal" stroke-width="0" stroke="none" xmlns="http://www.w3.org/2000/svg" height="0.000283465" fill="none"/>
<text x="25.5501" y="10.326" class="text" font-family="'Droid Sans'" stroke-width="0" stroke="none" xmlns="http://www.w3.org/2000/svg" font-size="2.50001" fill="#8c8c8c" text-anchor="middle">1</text>
<line id="connector1pin" class="pin" y1="11.376" stroke-width="0.700001" connectorname="+" y2="11.376" stroke="#787878" xmlns="http://www.w3.org/2000/svg" x1="0.350001" x2="7.55002" stroke-linecap="round"/>
<g x="0.350001" width="0.000283466" id="connector1terminal" y="11.376" class="terminal" stroke-width="0" stroke="none" xmlns="http://www.w3.org/2000/svg" height="0.000283465" fill="none"/>
<text x="3.95001" y="10.326" class="text" font-family="'Droid Sans'" stroke-width="0" stroke="none" xmlns="http://www.w3.org/2000/svg" font-size="2.50001" fill="#8c8c8c" text-anchor="middle">2</text>
</g>
</g></g></g><g partID='194110'><line stroke-linecap='round' stroke='#404040' x1='197.534' y1='110.392' x2='147.096' y2='110.507' stroke-width='0.699998' /></g><circle  fill="black" cx="147.096" cy="110.507" r="1.44" stroke-width="0" stroke="none" /><g partID='194120'><line stroke-linecap='round' stroke='#404040' x1='197.496' y1='38.5068' x2='197.534' y2='110.393' stroke-width='0.699998' /></g><circle  fill="black" cx="197.496" cy="38.5068" r="1.44" stroke-width="0" stroke="none" /><g partID='194270'><line stroke-linecap='round' stroke='#404040' x1='197.534' y1='110.392' x2='197.496' y2='38.5068' stroke-width='0.699998' /></g><circle  fill="black" cx="197.496" cy="38.5068" r="1.44" stroke-width="0" stroke="none" /><g partID='194390'><line stroke-linecap='round' stroke='#404040' x1='240.581' y1='110.392' x2='197.534' y2='110.392' stroke-width='0.699998' /></g><g partID='194280'><line stroke-linecap='round' stroke='#404040' x1='240.696' y1='74.5068' x2='240.581' y2='110.393' stroke-width='0.699998' /></g><g partID='194740'><line stroke-linecap='round' stroke='#404040' x1='3.24761' y1='17.0588' x2='3.09523' y2='31.3064' stroke-width='0.699998' /></g><g partID='194750'><line stroke-linecap='round' stroke='#404040' x1='39.0954' y1='16.9068' x2='3.24801' y2='17.0592' stroke-width='0.699998' /></g><g partID='194820'><line stroke-linecap='round' stroke='#404040' x1='68.0099' y1='110.392' x2='147.096' y2='110.507' stroke-width='0.699998' /></g><circle  fill="black" cx="147.096" cy="110.507" r="1.44" stroke-width="0" stroke="none" /><g partID='194830'><line stroke-linecap='round' stroke='#404040' x1='67.8956' y1='74.5068' x2='68.0099' y2='110.393' stroke-width='0.699998' /></g><g partID='194940'><line stroke-linecap='round' stroke='#404040' x1='53.5337' y1='89.0588' x2='53.4956' y2='60.1064' stroke-width='0.699998' /></g><circle  fill="black" cx="53.4956" cy="60.1064" r="1.44" stroke-width="0" stroke="none" /><g partID='194950'><line stroke-linecap='round' stroke='#404040' x1='96.6956' y1='88.9068' x2='53.5337' y2='89.0592' stroke-width='0.699998' /></g><g partID='195900'><line stroke-linecap='round' stroke='#404040' x1='68.0099' y1='31.1548' x2='67.8956' y2='45.707' stroke-width='0.699998' /></g><g partID='195910'><line stroke-linecap='round' stroke='#404040' x1='89.4954' y1='31.3068' x2='68.0099' y2='31.1545' stroke-width='0.699998' /></g><g partID='196500'><line stroke-linecap='round' stroke='#404040' x1='118.296' y1='31.1548' x2='132.696' y2='31.3073' stroke-width='0.699998' /></g><g partID='196510'><line stroke-linecap='round' stroke='#404040' x1='118.296' y1='31.3068' x2='118.296' y2='31.1545' stroke-width='0.699998' /></g><g partID='196720'><line stroke-linecap='round' stroke='#404040' x1='10.486' y1='60.1068' x2='53.4955' y2='60.1067' stroke-width='0.699998' /></g><circle  fill="black" cx="53.4955" cy="60.1067" r="1.44" stroke-width="0" stroke="none" /><g partID='196730'><line stroke-linecap='round' stroke='#404040' x1='3.09561' y1='60.1068' x2='10.4861' y2='60.1067' stroke-width='0.699998' /></g><g partID='197710'><line stroke-linecap='round' stroke='#404040' x1='147.248' y1='52.8684' x2='147.096' y2='88.906' stroke-width='0.699998' /></g><circle  fill="black" cx="147.096" cy="88.906" r="1.44" stroke-width="0" stroke="none" /><g partID='197720'><line stroke-linecap='round' stroke='#404040' x1='147.096' y1='45.7068' x2='147.248' y2='52.8686' stroke-width='0.699998' /></g><g partID='197830'><line stroke-linecap='round' stroke='#404040' x1='140.01' y1='89.0588' x2='147.096' y2='88.906' stroke-width='0.699998' /></g><circle  fill="black" cx="147.096" cy="88.906" r="1.44" stroke-width="0" stroke="none" /><g partID='197840'><line stroke-linecap='round' stroke='#404040' x1='118.296' y1='88.9068' x2='140.01' y2='89.0592' stroke-width='0.699998' /></g><g partID='198730'><line stroke-linecap='round' stroke='#404040' x1='240.581' y1='17.0588' x2='197.496' y2='16.9065' stroke-width='0.699998' /></g><circle  fill="black" cx="197.496" cy="16.9065" r="1.44" stroke-width="0" stroke="none" /><g partID='198740'><line stroke-linecap='round' stroke='#404040' x1='240.696' y1='45.7068' x2='240.581' y2='17.0594' stroke-width='0.699998' /></g><g partID='198870'><line stroke-linecap='round' stroke='#404040' x1='147.096' y1='16.9068' x2='147.248' y2='17.0592' stroke-width='0.699998' /></g><circle  fill="black" cx="147.096" cy="16.9068" r="1.44" stroke-width="0" stroke="none" /><g partID='198890'><line stroke-linecap='round' stroke='#404040' x1='147.248' y1='17.0588' x2='190.296' y2='17.0588' stroke-width='0.699998' /></g><g partID='199270'><line stroke-linecap='round' stroke='#404040' x1='197.534' y1='17.0588' x2='197.534' y2='17.0588' stroke-width='0.699998' /></g><g partID='198930'><line stroke-linecap='round' stroke='#404040' x1='190.296' y1='17.0588' x2='197.534' y2='17.0588' stroke-width='0.699998' /></g><g partID='198950'><line stroke-linecap='round' stroke='#404040' x1='197.534' y1='17.0588' x2='197.496' y2='16.9065' stroke-width='0.699998' /></g><circle  fill="black" cx="197.496" cy="16.9065" r="1.44" stroke-width="0" stroke="none" /><g partID='198970'><line stroke-linecap='round' stroke='#404040' x1='67.8956' y1='16.9068' x2='68.0099' y2='17.0592' stroke-width='0.699998' /></g><g partID='198990'><line stroke-linecap='round' stroke='#404040' x1='68.0099' y1='17.0588' x2='147.629' y2='17.4398' stroke-width='0.699998' /></g><g partID='199180'><line stroke-linecap='round' stroke='#404040' x1='147.248' y1='17.0588' x2='147.096' y2='16.9065' stroke-width='0.699998' /></g><circle  fill="black" cx="147.096" cy="16.9065" r="1.44" stroke-width="0" stroke="none" /><g partID='199030'><line stroke-linecap='round' stroke='#404040' x1='147.629' y1='17.4404' x2='147.248' y2='17.0595' stroke-width='0.699998' /></g><g partID='187820' id='partLabel'><g transform='translate(7.84687,41.7192)' ><g transform='matrix(1,0,0,1,0,0)'  ><g font-size='5' font-style='normal' font-weight='normal' fill='#000000' font-family="'DroidSans'" id='schematicLabel' fill-opacity='1' stroke='none' ><text x='0' y='3.75'>R1</text><text x='0' y='8.75'>100k&#x3a9;</text></g></g></g></g><g partID='127980' id='partLabel'><g transform='translate(43.6515,23.6203)' ><g transform='matrix(1,0,0,1,0,0)'  ><g font-size='5' font-style='normal' font-weight='normal' fill='#000000' font-family="'DroidSans'" id='schematicLabel' fill-opacity='1' stroke='none' ><text x='0' y='3.75'>R2</text><text x='0' y='8.75'>10k&#x3a9;</text></g></g></g></g><g partID='127990' id='partLabel'><g transform='translate(103.581,37.2236)' ><g font-size='5' font-style='normal' font-weight='normal' fill='#000000' font-family="'DroidSans'" id='schematicLabel' fill-opacity='1' stroke='none' ><text x='0' y='3.75'>R3</text><text x='0' y='8.75'>1k&#x3a9;</text></g></g></g><g partID='128010' id='partLabel'><g transform='translate(141.612,113.405)' ><g font-size='5' font-style='normal' font-weight='normal' fill='#000000' font-family="'DroidSans'" id='schematicLabel' fill-opacity='1' stroke='none' ><text x='0' y='3.75'>LED1</text></g></g></g><g partID='128030' id='partLabel'><g transform='translate(88.4219,95.8036)' ><g font-size='5' font-style='normal' font-weight='normal' fill='#000000' font-family="'DroidSans'" id='schematicLabel' fill-opacity='1' stroke='none' ><text x='0' y='3.75'>C1</text><text x='0' y='8.75'>5&#xb5;F</text></g></g></g><g partID='128060' id='partLabel'><g transform='translate(72.2646,55.4468)' ><g font-size='5' font-style='normal' font-weight='normal' fill='#000000' font-family="'DroidSans'" id='schematicLabel' fill-opacity='1' stroke='none' ><text x='0' y='3.75'>Q1</text><text x='0' y='8.75'>bipolar transistor</text><text x='0' y='13.75'>NPN (CBE)</text></g></g></g><g partID='123900' id='partLabel'><g transform='translate(222.562,75.6256)' ><g font-size='5' font-style='normal' font-weight='normal' fill='#000000' font-family="'DroidSans'" id='schematicLabel' fill-opacity='1' stroke='none' ><text x='0' y='3.75'>VCC1</text><text x='0' y='8.75'>9V</text></g></g></g><g partID='178210' id='partLabel'><g transform='translate(135.444,0)' ><g font-size='5' font-style='normal' font-weight='normal' fill='#000000' font-family="'DroidSans'" id='schematicLabel' fill-opacity='1' stroke='none' ><text x='0' y='3.75'>Q2</text><text x='0' y='8.75'>bipolar transistor</text><text x='0' y='13.75'>PNP (EBC)</text></g></g></g><g partID='179960' id='partLabel'><g transform='translate(207.736,19.8228)' ><g font-size='5' font-style='normal' font-weight='normal' fill='#000000' font-family="'DroidSans'" id='schematicLabel' fill-opacity='1' stroke='none' ><text x='0' y='3.75'>C2</text><text x='0' y='8.75'>100&#x3bc;F</text></g></g></g></svg>